<mxfile host="app.diagrams.net" agent="Mozilla/5.0 (X11; Linux x86_64) AppleWebKit/537.36 (KHTML, like Gecko) Chrome/128.0.0.0 Safari/537.36" version="24.7.16">
  <diagram name="Page-1" id="VLucZ5AUSHOfXLpmqc32">
    <mxGraphModel dx="880" dy="458" grid="1" gridSize="10" guides="1" tooltips="1" connect="1" arrows="1" fold="1" page="1" pageScale="1" pageWidth="850" pageHeight="1100" background="none" math="0" shadow="0">
      <root>
        <mxCell id="0" />
        <mxCell id="1" parent="0" />
        <mxCell id="fA-aBRfLOOjbHgrEFDjI-12" value="&lt;font color=&quot;#ffffff&quot; style=&quot;&quot;&gt;void-packages&lt;/font&gt;" style="swimlane;whiteSpace=wrap;html=1;startSize=20;swimlaneFillColor=#4d4d4d;fillColor=#4D4D4D;strokeColor=#36393d;movable=1;resizable=1;rotatable=1;deletable=1;editable=1;locked=0;connectable=1;fontFamily=Source Code Pro;fontSource=https%3A%2F%2Fxbps-src-tutorials.github.io%2Ffonts%2Fsource-code-pro-v11-all-charsets-500.woff2;" parent="1" vertex="1">
          <mxGeometry x="30" y="90" width="760" height="490" as="geometry">
            <mxRectangle x="30" y="90" width="140" height="30" as="alternateBounds" />
          </mxGeometry>
        </mxCell>
        <mxCell id="fA-aBRfLOOjbHgrEFDjI-48" style="edgeStyle=orthogonalEdgeStyle;rounded=1;orthogonalLoop=1;jettySize=auto;html=1;targetPerimeterSpacing=-10;sourcePerimeterSpacing=0;startArrow=none;startFill=0;jumpStyle=none;strokeColor=#808080;curved=0;fontFamily=Source Code Pro;fontSource=https%3A%2F%2Fxbps-src-tutorials.github.io%2Ffonts%2Fsource-code-pro-v11-all-charsets-500.woff2;" parent="fA-aBRfLOOjbHgrEFDjI-12" edge="1">
          <mxGeometry relative="1" as="geometry">
            <mxPoint x="190" y="150" as="sourcePoint" />
            <mxPoint x="280" y="170" as="targetPoint" />
            <Array as="points">
              <mxPoint x="210" y="150" />
              <mxPoint x="210" y="170" />
            </Array>
          </mxGeometry>
        </mxCell>
        <mxCell id="fA-aBRfLOOjbHgrEFDjI-49" style="edgeStyle=orthogonalEdgeStyle;rounded=1;orthogonalLoop=1;jettySize=auto;html=1;curved=0;strokeColor=#808080;fontFamily=Source Code Pro;fontSource=https%3A%2F%2Fxbps-src-tutorials.github.io%2Ffonts%2Fsource-code-pro-v11-all-charsets-500.woff2;" parent="fA-aBRfLOOjbHgrEFDjI-12" edge="1">
          <mxGeometry relative="1" as="geometry">
            <mxPoint x="190" y="230" as="sourcePoint" />
            <mxPoint x="280" y="190" as="targetPoint" />
            <Array as="points">
              <mxPoint x="210" y="230" />
              <mxPoint x="210" y="190" />
            </Array>
          </mxGeometry>
        </mxCell>
        <mxCell id="fA-aBRfLOOjbHgrEFDjI-50" style="edgeStyle=orthogonalEdgeStyle;rounded=1;orthogonalLoop=1;jettySize=auto;html=1;curved=0;strokeColor=#808080;fontFamily=Source Code Pro;fontSource=https%3A%2F%2Fxbps-src-tutorials.github.io%2Ffonts%2Fsource-code-pro-v11-all-charsets-500.woff2;" parent="fA-aBRfLOOjbHgrEFDjI-12" edge="1">
          <mxGeometry relative="1" as="geometry">
            <mxPoint x="190" y="310" as="sourcePoint" />
            <mxPoint x="280" y="210" as="targetPoint" />
            <Array as="points">
              <mxPoint x="230" y="310" />
              <mxPoint x="230" y="210" />
            </Array>
          </mxGeometry>
        </mxCell>
        <mxCell id="fA-aBRfLOOjbHgrEFDjI-43" value="" style="verticalLabelPosition=bottom;html=1;verticalAlign=top;align=center;strokeColor=none;fillColor=#FFFFFF;shape=mxgraph.azure.cloud_service_package_file;fontFamily=Source Code Pro;fontSource=https%3A%2F%2Fxbps-src-tutorials.github.io%2Ffonts%2Fsource-code-pro-v11-all-charsets-500.woff2;" parent="fA-aBRfLOOjbHgrEFDjI-12" vertex="1">
          <mxGeometry x="360" y="32.25" width="50" height="50" as="geometry" />
        </mxCell>
        <mxCell id="fA-aBRfLOOjbHgrEFDjI-185" value="masterdir-x86_64/" style="swimlane;whiteSpace=wrap;html=1;fillColor=none;strokeColor=#36393D;fontColor=#ffffff;fontFamily=Source Code Pro;fontStyle=0;perimeterSpacing=0;strokeWidth=3;swimlaneLine=1;rounded=0;align=left;labelPosition=center;verticalLabelPosition=middle;verticalAlign=middle;spacingLeft=5;fontSource=https%3A%2F%2Fxbps-src-tutorials.github.io%2Ffonts%2Fsource-code-pro-v11-all-charsets-500.woff2;" parent="fA-aBRfLOOjbHgrEFDjI-12" vertex="1">
          <mxGeometry x="550" y="90" width="200" height="360" as="geometry">
            <mxRectangle x="570" y="90" width="170" height="30" as="alternateBounds" />
          </mxGeometry>
        </mxCell>
        <mxCell id="fA-aBRfLOOjbHgrEFDjI-190" value="&lt;font color=&quot;#ffffff&quot;&gt;bin/&lt;/font&gt;" style="text;align=left;verticalAlign=middle;whiteSpace=wrap;rounded=0;fontFamily=Source Code Pro;fillColor=none;strokeColor=none;labelBorderColor=none;labelBackgroundColor=none;html=1;fontSource=https%3A%2F%2Fxbps-src-tutorials.github.io%2Ffonts%2Fsource-code-pro-v11-all-charsets-500.woff2;" parent="fA-aBRfLOOjbHgrEFDjI-185" vertex="1">
          <mxGeometry x="6.15" y="30" width="183.85" height="20" as="geometry" />
        </mxCell>
        <mxCell id="fA-aBRfLOOjbHgrEFDjI-191" value="&lt;font color=&quot;#ffffff&quot;&gt;boot/&lt;/font&gt;" style="text;align=left;verticalAlign=middle;whiteSpace=wrap;rounded=0;fontFamily=Source Code Pro;fillColor=none;strokeColor=none;labelBorderColor=none;labelBackgroundColor=none;html=1;fontSource=https%3A%2F%2Fxbps-src-tutorials.github.io%2Ffonts%2Fsource-code-pro-v11-all-charsets-500.woff2;" parent="fA-aBRfLOOjbHgrEFDjI-185" vertex="1">
          <mxGeometry x="6.149999999999977" y="50" width="183.85" height="20" as="geometry" />
        </mxCell>
        <mxCell id="fA-aBRfLOOjbHgrEFDjI-192" value="&lt;font color=&quot;#ffffff&quot;&gt;dev/&lt;/font&gt;" style="text;align=left;verticalAlign=middle;whiteSpace=wrap;rounded=0;fontFamily=Source Code Pro;fillColor=none;strokeColor=none;labelBorderColor=none;labelBackgroundColor=none;html=1;fontSource=https%3A%2F%2Fxbps-src-tutorials.github.io%2Ffonts%2Fsource-code-pro-v11-all-charsets-500.woff2;" parent="fA-aBRfLOOjbHgrEFDjI-185" vertex="1">
          <mxGeometry x="6.149999999999977" y="70" width="183.85" height="20" as="geometry" />
        </mxCell>
        <mxCell id="fA-aBRfLOOjbHgrEFDjI-193" value="&lt;font color=&quot;#ffffff&quot;&gt;etc/&lt;/font&gt;" style="text;align=left;verticalAlign=middle;whiteSpace=wrap;rounded=0;fontFamily=Source Code Pro;fillColor=none;strokeColor=none;labelBorderColor=none;labelBackgroundColor=none;html=1;fontSource=https%3A%2F%2Fxbps-src-tutorials.github.io%2Ffonts%2Fsource-code-pro-v11-all-charsets-500.woff2;" parent="fA-aBRfLOOjbHgrEFDjI-185" vertex="1">
          <mxGeometry x="6.149999999999977" y="90" width="183.85" height="20" as="geometry" />
        </mxCell>
        <mxCell id="fA-aBRfLOOjbHgrEFDjI-199" value="&lt;font color=&quot;#ffffff&quot;&gt;home/&lt;/font&gt;" style="text;align=left;verticalAlign=middle;whiteSpace=wrap;rounded=0;fontFamily=Source Code Pro;fillColor=none;strokeColor=none;labelBorderColor=none;labelBackgroundColor=none;html=1;fontSource=https%3A%2F%2Fxbps-src-tutorials.github.io%2Ffonts%2Fsource-code-pro-v11-all-charsets-500.woff2;" parent="fA-aBRfLOOjbHgrEFDjI-185" vertex="1">
          <mxGeometry x="6.149999999999977" y="110" width="183.85" height="20" as="geometry" />
        </mxCell>
        <mxCell id="fA-aBRfLOOjbHgrEFDjI-200" value="&lt;font color=&quot;#ffffff&quot;&gt;root/&lt;/font&gt;" style="text;align=left;verticalAlign=middle;whiteSpace=wrap;rounded=0;fontFamily=Source Code Pro;fillColor=none;strokeColor=none;labelBorderColor=none;labelBackgroundColor=none;html=1;fontSource=https%3A%2F%2Fxbps-src-tutorials.github.io%2Ffonts%2Fsource-code-pro-v11-all-charsets-500.woff2;" parent="fA-aBRfLOOjbHgrEFDjI-185" vertex="1">
          <mxGeometry x="6.149999999999977" y="130" width="183.85" height="20" as="geometry" />
        </mxCell>
        <mxCell id="fA-aBRfLOOjbHgrEFDjI-202" value="" style="shape=curlyBracket;whiteSpace=wrap;html=1;rounded=1;flipH=1;labelPosition=right;verticalLabelPosition=middle;align=left;verticalAlign=middle;size=0.5;fillColor=none;strokeColor=#808080;fontFamily=Source Code Pro;fontSource=https%3A%2F%2Fxbps-src-tutorials.github.io%2Ffonts%2Fsource-code-pro-v11-all-charsets-500.woff2;" parent="fA-aBRfLOOjbHgrEFDjI-185" vertex="1">
          <mxGeometry x="60" y="40" width="30" height="120" as="geometry" />
        </mxCell>
        <mxCell id="fA-aBRfLOOjbHgrEFDjI-246" value="&lt;font color=&quot;#ffffff&quot;&gt;chroot system&lt;/font&gt;" style="text;align=left;verticalAlign=middle;whiteSpace=wrap;rounded=0;fontFamily=Source Code Pro;fillColor=none;strokeColor=none;labelBorderColor=none;labelBackgroundColor=none;html=1;fontSource=https%3A%2F%2Fxbps-src-tutorials.github.io%2Ffonts%2Fsource-code-pro-v11-all-charsets-500.woff2;" parent="fA-aBRfLOOjbHgrEFDjI-185" vertex="1">
          <mxGeometry x="90" y="90" width="100" height="20" as="geometry" />
        </mxCell>
        <mxCell id="fA-aBRfLOOjbHgrEFDjI-247" value="&lt;font color=&quot;#ffffff&quot;&gt;...&lt;/font&gt;" style="text;align=left;verticalAlign=middle;whiteSpace=wrap;rounded=0;fontFamily=Source Code Pro;fillColor=none;strokeColor=none;labelBorderColor=none;labelBackgroundColor=none;html=1;fontSource=https%3A%2F%2Fxbps-src-tutorials.github.io%2Ffonts%2Fsource-code-pro-v11-all-charsets-500.woff2;" parent="fA-aBRfLOOjbHgrEFDjI-185" vertex="1">
          <mxGeometry x="6.15" y="150" width="33.85" height="20" as="geometry" />
        </mxCell>
        <mxCell id="fA-aBRfLOOjbHgrEFDjI-293" value="&lt;font color=&quot;#ffffff&quot;&gt;builddir/&lt;/font&gt;" style="text;align=left;verticalAlign=middle;whiteSpace=wrap;rounded=0;fontFamily=Source Code Pro;fillColor=none;strokeColor=none;labelBorderColor=none;labelBackgroundColor=none;html=1;fontSource=https%3A%2F%2Fxbps-src-tutorials.github.io%2Ffonts%2Fsource-code-pro-v11-all-charsets-500.woff2;" parent="fA-aBRfLOOjbHgrEFDjI-185" vertex="1">
          <mxGeometry x="6.15" y="170" width="73.85" height="20" as="geometry" />
        </mxCell>
        <mxCell id="fA-aBRfLOOjbHgrEFDjI-294" value="&lt;font color=&quot;#ffffff&quot;&gt;j4-dmenu-desktop-2.18/&lt;/font&gt;" style="text;align=left;verticalAlign=middle;whiteSpace=wrap;rounded=0;fontFamily=Source Code Pro;fillColor=none;strokeColor=none;labelBorderColor=none;labelBackgroundColor=none;html=1;fontSource=https%3A%2F%2Fxbps-src-tutorials.github.io%2Ffonts%2Fsource-code-pro-v11-all-charsets-500.woff2;" parent="fA-aBRfLOOjbHgrEFDjI-185" vertex="1">
          <mxGeometry x="30" y="190" width="170" height="20" as="geometry" />
        </mxCell>
        <mxCell id="fA-aBRfLOOjbHgrEFDjI-295" value="&lt;font color=&quot;#ffffff&quot;&gt;...&lt;/font&gt;" style="text;align=left;verticalAlign=middle;whiteSpace=wrap;rounded=0;fontFamily=Source Code Pro;fillColor=none;strokeColor=none;labelBorderColor=none;labelBackgroundColor=none;html=1;fontSource=https%3A%2F%2Fxbps-src-tutorials.github.io%2Ffonts%2Fsource-code-pro-v11-all-charsets-500.woff2;" parent="fA-aBRfLOOjbHgrEFDjI-185" vertex="1">
          <mxGeometry x="49.03" y="250" width="31.93" height="20" as="geometry" />
        </mxCell>
        <mxCell id="fA-aBRfLOOjbHgrEFDjI-344" value="&lt;font color=&quot;#ffffff&quot;&gt;destdir/&lt;/font&gt;" style="text;align=left;verticalAlign=middle;whiteSpace=wrap;rounded=0;fontFamily=Source Code Pro;fillColor=none;strokeColor=none;labelBorderColor=none;labelBackgroundColor=none;html=1;fontSource=https%3A%2F%2Fxbps-src-tutorials.github.io%2Ffonts%2Fsource-code-pro-v11-all-charsets-500.woff2;" parent="fA-aBRfLOOjbHgrEFDjI-185" vertex="1">
          <mxGeometry x="7.11" y="270" width="63.85" height="20" as="geometry" />
        </mxCell>
        <mxCell id="fA-aBRfLOOjbHgrEFDjI-345" value="&lt;font color=&quot;#ffffff&quot;&gt;j4-dmenu-desktop-2.18/&lt;/font&gt;" style="text;align=left;verticalAlign=middle;whiteSpace=wrap;rounded=0;fontFamily=Source Code Pro;fillColor=none;strokeColor=none;labelBorderColor=none;labelBackgroundColor=none;html=1;fontSource=https%3A%2F%2Fxbps-src-tutorials.github.io%2Ffonts%2Fsource-code-pro-v11-all-charsets-500.woff2;" parent="fA-aBRfLOOjbHgrEFDjI-185" vertex="1">
          <mxGeometry x="30.96" y="290" width="170" height="20" as="geometry" />
        </mxCell>
        <mxCell id="fA-aBRfLOOjbHgrEFDjI-346" value="&lt;font color=&quot;#ffffff&quot;&gt;usr/&lt;/font&gt;" style="text;align=left;verticalAlign=middle;whiteSpace=wrap;rounded=0;fontFamily=Source Code Pro;fillColor=none;strokeColor=none;labelBorderColor=none;labelBackgroundColor=none;html=1;fontSource=https%3A%2F%2Fxbps-src-tutorials.github.io%2Ffonts%2Fsource-code-pro-v11-all-charsets-500.woff2;" parent="fA-aBRfLOOjbHgrEFDjI-185" vertex="1">
          <mxGeometry x="49.03" y="310" width="31.93" height="20" as="geometry" />
        </mxCell>
        <mxCell id="fA-aBRfLOOjbHgrEFDjI-354" value="&lt;font color=&quot;#ffffff&quot;&gt;CMakeLists.txt&lt;br&gt;&lt;/font&gt;" style="text;align=left;verticalAlign=middle;whiteSpace=wrap;rounded=0;fontFamily=Source Code Pro;fillColor=none;strokeColor=none;labelBorderColor=none;labelBackgroundColor=none;html=1;fontSource=https%3A%2F%2Fxbps-src-tutorials.github.io%2Ffonts%2Fsource-code-pro-v11-all-charsets-500.woff2;" parent="fA-aBRfLOOjbHgrEFDjI-185" vertex="1">
          <mxGeometry x="48.07" y="210" width="111.93" height="20" as="geometry" />
        </mxCell>
        <mxCell id="fA-aBRfLOOjbHgrEFDjI-355" value="&lt;font color=&quot;#ffffff&quot;&gt;src/&lt;br&gt;&lt;/font&gt;" style="text;align=left;verticalAlign=middle;whiteSpace=wrap;rounded=0;fontFamily=Source Code Pro;fillColor=none;strokeColor=none;labelBorderColor=none;labelBackgroundColor=none;html=1;fontSource=https%3A%2F%2Fxbps-src-tutorials.github.io%2Ffonts%2Fsource-code-pro-v11-all-charsets-500.woff2;" parent="fA-aBRfLOOjbHgrEFDjI-185" vertex="1">
          <mxGeometry x="48.07000000000005" y="230" width="111.93" height="20" as="geometry" />
        </mxCell>
        <mxCell id="fA-aBRfLOOjbHgrEFDjI-416" value="&lt;font color=&quot;#ffffff&quot;&gt;...&lt;/font&gt;" style="text;align=left;verticalAlign=middle;whiteSpace=wrap;rounded=0;fontFamily=Source Code Pro;fillColor=none;strokeColor=none;labelBorderColor=none;labelBackgroundColor=none;html=1;fontSource=https%3A%2F%2Fxbps-src-tutorials.github.io%2Ffonts%2Fsource-code-pro-v11-all-charsets-500.woff2;" parent="fA-aBRfLOOjbHgrEFDjI-185" vertex="1">
          <mxGeometry x="49.02999999999997" y="330" width="31.93" height="20" as="geometry" />
        </mxCell>
        <mxCell id="fA-aBRfLOOjbHgrEFDjI-188" value="" style="editableCssRules=.*;html=1;shape=image;verticalLabelPosition=bottom;labelBackgroundColor=#ffffff;verticalAlign=top;aspect=fixed;imageAspect=0;image=data:image/svg+xml,PHN2ZyB4bWxucz0iaHR0cDovL3d3dy53My5vcmcvMjAwMC9zdmciIHhtbG5zOnY9Imh0dHBzOi8vdmVjdGEuaW8vbmFubyIgd2lkdGg9IjE0LjAwMDI5OTQ1MzczNTM1MiIgaGVpZ2h0PSIxNS45OTI5MjI3ODI4OTc5NSIgdmlld0JveD0iLTAuMDAwMTQ5NjA4NDAwNTMzOTA3MTIgLTAuMDAwNDYxNzIyMDgzODU1NDIwMzUgMTQuMDAwMjk5NDUzNzM1MzUyIDE1Ljk5MjkyMjc4Mjg5Nzk1Ij4mI3hhOwk8c3R5bGUgdHlwZT0idGV4dC9jc3MiPi5zdDAgeyBmaWxsOiByZ2IoMjU1LCAyNTUsIDI1NSk7IH0gPC9zdHlsZT4mI3hhOwk8cGF0aCBjbGFzcz0ic3QwIiBkPSJNMTMuNjcgMy43MzZMNy4zNi4wOTZhLjcyLjcyIDAgMCAwLS43MiAwTC4zMyAzLjczNmEuNzIuNzIgMCAwIDAtLjMzLjYydjcuMjhhLjcyLjcyIDAgMCAwIC4zNi42Mmw2LjI4IDMuNjRhLjcyLjcyIDAgMCAwIC43MiAwbDYuMzEtMy42NGEuNzIuNzIgMCAwIDAgLjMzLS42MnYtNy4yOGEuNzIuNzIgMCAwIDAtLjMzLS42MnptLS44NyA3LjJsLTIuMi0xLjI3di0zLjM0bC0zLjI1IDEuODd2My44bDIuOS0xLjY3IDIuMiAxLjI3LTUuNDUgMy4xLTUuNDUtMy4xNSAyLjItMS4yNyAyLjkgMS43MnYtMy44TDMuNCA2LjMyNnYzLjM0bC0yLjIgMS4yN3YtNi4yOWw1LjQ1LTMuMTR2Mi40OWwtMi45IDEuNzJMNyA3LjU4NmwzLjI1LTEuODgtMi45LTEuNzF2LTIuNDlsNS40NSAzLjE0eiIvPiYjeGE7PC9zdmc+;fontFamily=Source Code Pro;fontSource=https%3A%2F%2Fxbps-src-tutorials.github.io%2Ffonts%2Fsource-code-pro-v11-all-charsets-500.woff2;" parent="fA-aBRfLOOjbHgrEFDjI-12" vertex="1">
          <mxGeometry x="626.15" y="30" width="47.69" height="54.5" as="geometry" />
        </mxCell>
        <mxCell id="fA-aBRfLOOjbHgrEFDjI-16" value="" style="sketch=0;pointerEvents=1;shadow=0;dashed=0;html=1;strokeColor=none;fillColor=#FFFFFF;labelPosition=center;verticalLabelPosition=bottom;verticalAlign=top;outlineConnect=0;align=center;shape=mxgraph.office.concepts.script;fontFamily=Source Code Pro;fontSource=https%3A%2F%2Fxbps-src-tutorials.github.io%2Ffonts%2Fsource-code-pro-v11-all-charsets-500.woff2;" parent="fA-aBRfLOOjbHgrEFDjI-12" vertex="1">
          <mxGeometry x="17.750000000000004" y="32.25" width="53" height="49" as="geometry" />
        </mxCell>
        <mxCell id="fA-aBRfLOOjbHgrEFDjI-13" value="&lt;font color=&quot;#33ff00&quot;&gt;xbps-src&lt;/font&gt;" style="text;align=center;verticalAlign=middle;whiteSpace=wrap;rounded=0;fontFamily=Source Code Pro;fillColor=none;strokeColor=none;labelBorderColor=none;labelBackgroundColor=none;html=1;fontSource=https%3A%2F%2Fxbps-src-tutorials.github.io%2Ffonts%2Fsource-code-pro-v11-all-charsets-500.woff2;" parent="fA-aBRfLOOjbHgrEFDjI-12" vertex="1">
          <mxGeometry x="10" y="90" width="68.5" height="20" as="geometry" />
        </mxCell>
        <mxCell id="fA-aBRfLOOjbHgrEFDjI-423" value="" style="html=1;dashed=0;aspect=fixed;verticalLabelPosition=bottom;verticalAlign=top;align=center;shape=mxgraph.gmdl.edit;strokeColor=none;fillColor=#FFFFFF;shadow=0;sketch=0;fontFamily=Source Code Pro;fontSource=https%3A%2F%2Fxbps-src-tutorials.github.io%2Ffonts%2Fsource-code-pro-v11-all-charsets-500.woff2;" parent="fA-aBRfLOOjbHgrEFDjI-12" vertex="1">
          <mxGeometry x="130.25" y="35" width="44.5" height="44.5" as="geometry" />
        </mxCell>
        <mxCell id="fA-aBRfLOOjbHgrEFDjI-28" value="&lt;font color=&quot;#ffffff&quot;&gt;...&lt;/font&gt;" style="text;align=left;verticalAlign=middle;whiteSpace=wrap;rounded=0;fontFamily=Source Code Pro;fillColor=none;strokeColor=none;labelBorderColor=none;labelBackgroundColor=none;html=1;fontStyle=2;fontSource=https%3A%2F%2Fxbps-src-tutorials.github.io%2Ffonts%2Fsource-code-pro-v11-all-charsets-500.woff2;" parent="fA-aBRfLOOjbHgrEFDjI-12" vertex="1">
          <mxGeometry x="140" y="180" width="25" height="20" as="geometry" />
        </mxCell>
        <mxCell id="v_S-9-zrldfwNLv2zRYd-4" style="edgeStyle=orthogonalEdgeStyle;rounded=1;orthogonalLoop=1;jettySize=auto;html=1;curved=0;strokeColor=#808080;fontFamily=Source Code Pro;fontSource=https%3A%2F%2Fxbps-src-tutorials.github.io%2Ffonts%2Fsource-code-pro-v11-all-charsets-500.woff2;" parent="fA-aBRfLOOjbHgrEFDjI-12" edge="1">
          <mxGeometry relative="1" as="geometry">
            <mxPoint x="190" y="350" as="sourcePoint" />
            <mxPoint x="280" y="230" as="targetPoint" />
            <Array as="points">
              <mxPoint x="250" y="350" />
              <mxPoint x="250" y="230" />
            </Array>
          </mxGeometry>
        </mxCell>
        <mxCell id="v_S-9-zrldfwNLv2zRYd-7" value="" style="group;fontFamily=Source Code Pro;fontSource=https%3A%2F%2Fxbps-src-tutorials.github.io%2Ffonts%2Fsource-code-pro-v11-all-charsets-500.woff2;" parent="fA-aBRfLOOjbHgrEFDjI-12" vertex="1" connectable="0">
          <mxGeometry x="80" y="90" width="150" height="290" as="geometry" />
        </mxCell>
        <mxCell id="fA-aBRfLOOjbHgrEFDjI-14" value="&lt;font color=&quot;#ffffff&quot;&gt;srcpkgs/&lt;/font&gt;" style="text;align=left;verticalAlign=middle;whiteSpace=wrap;rounded=0;fontFamily=Source Code Pro;fillColor=none;strokeColor=none;labelBorderColor=none;labelBackgroundColor=none;html=1;fontSource=https%3A%2F%2Fxbps-src-tutorials.github.io%2Ffonts%2Fsource-code-pro-v11-all-charsets-500.woff2;" parent="v_S-9-zrldfwNLv2zRYd-7" vertex="1">
          <mxGeometry width="70" height="20" as="geometry" />
        </mxCell>
        <mxCell id="fA-aBRfLOOjbHgrEFDjI-17" value="&lt;font color=&quot;#ffffff&quot;&gt;j4-dmenu-desktop/&lt;/font&gt;" style="text;align=left;verticalAlign=middle;whiteSpace=wrap;rounded=0;fontFamily=Source Code Pro;fillColor=none;strokeColor=none;labelBorderColor=none;labelBackgroundColor=none;html=1;fontSource=https%3A%2F%2Fxbps-src-tutorials.github.io%2Ffonts%2Fsource-code-pro-v11-all-charsets-500.woff2;" parent="v_S-9-zrldfwNLv2zRYd-7" vertex="1">
          <mxGeometry x="20" y="30" width="130" height="20" as="geometry" />
        </mxCell>
        <mxCell id="fA-aBRfLOOjbHgrEFDjI-18" value="&lt;font color=&quot;#ffffff&quot;&gt;template&lt;/font&gt;" style="text;align=left;verticalAlign=middle;whiteSpace=wrap;rounded=0;fontFamily=Source Code Pro;fillColor=none;strokeColor=none;labelBorderColor=none;labelBackgroundColor=none;html=1;fontSource=https%3A%2F%2Fxbps-src-tutorials.github.io%2Ffonts%2Fsource-code-pro-v11-all-charsets-500.woff2;" parent="v_S-9-zrldfwNLv2zRYd-7" vertex="1">
          <mxGeometry x="40" y="50" width="60" height="20" as="geometry" />
        </mxCell>
        <mxCell id="fA-aBRfLOOjbHgrEFDjI-19" value="&lt;font color=&quot;#ffffff&quot;&gt;patches/&lt;/font&gt;" style="text;align=left;verticalAlign=middle;whiteSpace=wrap;rounded=0;fontFamily=Source Code Pro;fillColor=none;strokeColor=none;labelBorderColor=none;labelBackgroundColor=none;html=1;fontStyle=2;fontSource=https%3A%2F%2Fxbps-src-tutorials.github.io%2Ffonts%2Fsource-code-pro-v11-all-charsets-500.woff2;" parent="v_S-9-zrldfwNLv2zRYd-7" vertex="1">
          <mxGeometry x="40" y="70" width="60" height="20" as="geometry" />
        </mxCell>
        <mxCell id="fA-aBRfLOOjbHgrEFDjI-29" value="&lt;font color=&quot;#ffffff&quot;&gt;bat/&lt;/font&gt;" style="text;align=left;verticalAlign=middle;whiteSpace=wrap;rounded=0;fontFamily=Source Code Pro;fillColor=none;strokeColor=none;labelBorderColor=none;labelBackgroundColor=none;html=1;fontSource=https%3A%2F%2Fxbps-src-tutorials.github.io%2Ffonts%2Fsource-code-pro-v11-all-charsets-500.woff2;" parent="v_S-9-zrldfwNLv2zRYd-7" vertex="1">
          <mxGeometry x="20" y="110" width="30" height="20" as="geometry" />
        </mxCell>
        <mxCell id="fA-aBRfLOOjbHgrEFDjI-30" value="&lt;font color=&quot;#ffffff&quot;&gt;template&lt;/font&gt;" style="text;align=left;verticalAlign=middle;whiteSpace=wrap;rounded=0;fontFamily=Source Code Pro;fillColor=none;strokeColor=none;labelBorderColor=none;labelBackgroundColor=none;html=1;fontSource=https%3A%2F%2Fxbps-src-tutorials.github.io%2Ffonts%2Fsource-code-pro-v11-all-charsets-500.woff2;" parent="v_S-9-zrldfwNLv2zRYd-7" vertex="1">
          <mxGeometry x="40" y="130" width="60" height="20" as="geometry" />
        </mxCell>
        <mxCell id="fA-aBRfLOOjbHgrEFDjI-33" value="&lt;font color=&quot;#ffffff&quot;&gt;patches/&lt;/font&gt;" style="text;align=left;verticalAlign=middle;whiteSpace=wrap;rounded=0;fontFamily=Source Code Pro;fillColor=none;strokeColor=none;labelBorderColor=none;labelBackgroundColor=none;html=1;fontStyle=2;fontSource=https%3A%2F%2Fxbps-src-tutorials.github.io%2Ffonts%2Fsource-code-pro-v11-all-charsets-500.woff2;" parent="v_S-9-zrldfwNLv2zRYd-7" vertex="1">
          <mxGeometry x="40" y="150" width="60" height="20" as="geometry" />
        </mxCell>
        <mxCell id="fA-aBRfLOOjbHgrEFDjI-34" value="&lt;font color=&quot;#ffffff&quot;&gt;...&lt;/font&gt;" style="text;align=left;verticalAlign=middle;whiteSpace=wrap;rounded=0;fontFamily=Source Code Pro;fillColor=none;strokeColor=none;labelBorderColor=none;labelBackgroundColor=none;html=1;fontStyle=2;fontSource=https%3A%2F%2Fxbps-src-tutorials.github.io%2Ffonts%2Fsource-code-pro-v11-all-charsets-500.woff2;" parent="v_S-9-zrldfwNLv2zRYd-7" vertex="1">
          <mxGeometry x="60" y="170" width="25" height="20" as="geometry" />
        </mxCell>
        <mxCell id="fA-aBRfLOOjbHgrEFDjI-36" value="&lt;font color=&quot;#ffffff&quot;&gt;oniguruma/&lt;/font&gt;" style="text;align=left;verticalAlign=middle;whiteSpace=wrap;rounded=0;fontFamily=Source Code Pro;fillColor=none;strokeColor=none;labelBorderColor=none;labelBackgroundColor=none;html=1;fontSource=https%3A%2F%2Fxbps-src-tutorials.github.io%2Ffonts%2Fsource-code-pro-v11-all-charsets-500.woff2;" parent="v_S-9-zrldfwNLv2zRYd-7" vertex="1">
          <mxGeometry x="20" y="190" width="80" height="20" as="geometry" />
        </mxCell>
        <mxCell id="fA-aBRfLOOjbHgrEFDjI-37" value="&lt;font color=&quot;#ffffff&quot;&gt;template&lt;/font&gt;" style="text;align=left;verticalAlign=middle;whiteSpace=wrap;rounded=0;fontFamily=Source Code Pro;fillColor=none;strokeColor=none;labelBorderColor=none;labelBackgroundColor=none;html=1;fontSource=https%3A%2F%2Fxbps-src-tutorials.github.io%2Ffonts%2Fsource-code-pro-v11-all-charsets-500.woff2;" parent="v_S-9-zrldfwNLv2zRYd-7" vertex="1">
          <mxGeometry x="40" y="210" width="60" height="20" as="geometry" />
        </mxCell>
        <mxCell id="fA-aBRfLOOjbHgrEFDjI-39" value="&lt;font color=&quot;#ffffff&quot;&gt;...&lt;/font&gt;" style="text;align=left;verticalAlign=middle;whiteSpace=wrap;rounded=0;fontFamily=Source Code Pro;fillColor=none;strokeColor=none;labelBorderColor=none;labelBackgroundColor=none;html=1;fontSource=https%3A%2F%2Fxbps-src-tutorials.github.io%2Ffonts%2Fsource-code-pro-v11-all-charsets-500.woff2;" parent="v_S-9-zrldfwNLv2zRYd-7" vertex="1">
          <mxGeometry x="20" y="270" width="35" height="20" as="geometry" />
        </mxCell>
        <mxCell id="v_S-9-zrldfwNLv2zRYd-1" value="&lt;font color=&quot;#ffffff&quot;&gt;rofimoji/&lt;/font&gt;" style="text;align=left;verticalAlign=middle;whiteSpace=wrap;rounded=0;fontFamily=Source Code Pro;fillColor=none;strokeColor=none;labelBorderColor=none;labelBackgroundColor=none;html=1;fontSource=https%3A%2F%2Fxbps-src-tutorials.github.io%2Ffonts%2Fsource-code-pro-v11-all-charsets-500.woff2;" parent="v_S-9-zrldfwNLv2zRYd-7" vertex="1">
          <mxGeometry x="20" y="230" width="80" height="20" as="geometry" />
        </mxCell>
        <mxCell id="v_S-9-zrldfwNLv2zRYd-2" value="&lt;font color=&quot;#ffffff&quot;&gt;template&lt;/font&gt;" style="text;align=left;verticalAlign=middle;whiteSpace=wrap;rounded=0;fontFamily=Source Code Pro;fillColor=none;strokeColor=none;labelBorderColor=none;labelBackgroundColor=none;html=1;fontSource=https%3A%2F%2Fxbps-src-tutorials.github.io%2Ffonts%2Fsource-code-pro-v11-all-charsets-500.woff2;" parent="v_S-9-zrldfwNLv2zRYd-7" vertex="1">
          <mxGeometry x="40" y="250" width="60" height="20" as="geometry" />
        </mxCell>
        <mxCell id="v_S-9-zrldfwNLv2zRYd-8" value="" style="group;fontFamily=Source Code Pro;fontSource=https%3A%2F%2Fxbps-src-tutorials.github.io%2Ffonts%2Fsource-code-pro-v11-all-charsets-500.woff2;" parent="fA-aBRfLOOjbHgrEFDjI-12" vertex="1" connectable="0">
          <mxGeometry x="250" y="90" width="300" height="390" as="geometry" />
        </mxCell>
        <mxCell id="fA-aBRfLOOjbHgrEFDjI-147" value="&lt;font color=&quot;#ffffff&quot;&gt;...&lt;/font&gt;" style="text;align=left;verticalAlign=middle;whiteSpace=wrap;rounded=0;fontFamily=Source Code Pro;fillColor=none;strokeColor=none;labelBorderColor=none;labelBackgroundColor=none;html=1;fontSource=https%3A%2F%2Fxbps-src-tutorials.github.io%2Ffonts%2Fsource-code-pro-v11-all-charsets-500.woff2;" parent="v_S-9-zrldfwNLv2zRYd-8" vertex="1">
          <mxGeometry x="40" y="350" width="30" height="20" as="geometry" />
        </mxCell>
        <mxCell id="fA-aBRfLOOjbHgrEFDjI-113" value="&lt;font color=&quot;#ffffff&quot;&gt;onig-6.9.9.tar.gz&lt;/font&gt;" style="text;align=left;verticalAlign=middle;whiteSpace=wrap;rounded=0;fontFamily=Source Code Pro;fillColor=none;strokeColor=none;labelBorderColor=none;labelBackgroundColor=none;html=1;fontSource=https%3A%2F%2Fxbps-src-tutorials.github.io%2Ffonts%2Fsource-code-pro-v11-all-charsets-500.woff2;" parent="v_S-9-zrldfwNLv2zRYd-8" vertex="1">
          <mxGeometry x="60" y="290" width="130" height="20" as="geometry" />
        </mxCell>
        <mxCell id="fA-aBRfLOOjbHgrEFDjI-112" value="&lt;font color=&quot;#ffffff&quot;&gt;oniguruma-6.9.9/&lt;/font&gt;" style="text;align=left;verticalAlign=middle;whiteSpace=wrap;rounded=0;fontFamily=Source Code Pro;fillColor=none;strokeColor=none;labelBorderColor=none;labelBackgroundColor=none;html=1;fontSource=https%3A%2F%2Fxbps-src-tutorials.github.io%2Ffonts%2Fsource-code-pro-v11-all-charsets-500.woff2;" parent="v_S-9-zrldfwNLv2zRYd-8" vertex="1">
          <mxGeometry x="40" y="270" width="120" height="20" as="geometry" />
        </mxCell>
        <mxCell id="fA-aBRfLOOjbHgrEFDjI-111" value="&lt;font color=&quot;#ffffff&quot;&gt;v0.24.0.tar.gz&lt;/font&gt;" style="text;align=left;verticalAlign=middle;whiteSpace=wrap;rounded=0;fontFamily=Source Code Pro;fillColor=none;strokeColor=none;labelBorderColor=none;labelBackgroundColor=none;html=1;fontSource=https%3A%2F%2Fxbps-src-tutorials.github.io%2Ffonts%2Fsource-code-pro-v11-all-charsets-500.woff2;" parent="v_S-9-zrldfwNLv2zRYd-8" vertex="1">
          <mxGeometry x="60" y="250" width="110" height="20" as="geometry" />
        </mxCell>
        <mxCell id="fA-aBRfLOOjbHgrEFDjI-108" value="&lt;font color=&quot;#ffffff&quot;&gt;bat-0.24.0/&lt;/font&gt;" style="text;align=left;verticalAlign=middle;whiteSpace=wrap;rounded=0;fontFamily=Source Code Pro;fillColor=none;strokeColor=none;labelBorderColor=none;labelBackgroundColor=none;html=1;fontSource=https%3A%2F%2Fxbps-src-tutorials.github.io%2Ffonts%2Fsource-code-pro-v11-all-charsets-500.woff2;" parent="v_S-9-zrldfwNLv2zRYd-8" vertex="1">
          <mxGeometry x="40" y="230" width="90" height="20" as="geometry" />
        </mxCell>
        <mxCell id="fA-aBRfLOOjbHgrEFDjI-107" value="&lt;font color=&quot;#ffffff&quot;&gt;r2.18.tar.gz&lt;/font&gt;" style="text;align=left;verticalAlign=middle;whiteSpace=wrap;rounded=0;fontFamily=Source Code Pro;fillColor=none;strokeColor=none;labelBorderColor=none;labelBackgroundColor=none;html=1;fontSource=https%3A%2F%2Fxbps-src-tutorials.github.io%2Ffonts%2Fsource-code-pro-v11-all-charsets-500.woff2;" parent="v_S-9-zrldfwNLv2zRYd-8" vertex="1">
          <mxGeometry x="60" y="210" width="90" height="20" as="geometry" />
        </mxCell>
        <mxCell id="fA-aBRfLOOjbHgrEFDjI-106" value="&lt;font color=&quot;#ffffff&quot;&gt;j4-dmenu-desktop-2.18/&lt;/font&gt;" style="text;align=left;verticalAlign=middle;whiteSpace=wrap;rounded=0;fontFamily=Source Code Pro;fillColor=none;strokeColor=none;labelBorderColor=none;labelBackgroundColor=none;html=1;fontSource=https%3A%2F%2Fxbps-src-tutorials.github.io%2Ffonts%2Fsource-code-pro-v11-all-charsets-500.woff2;" parent="v_S-9-zrldfwNLv2zRYd-8" vertex="1">
          <mxGeometry x="40" y="190" width="170" height="20" as="geometry" />
        </mxCell>
        <mxCell id="fA-aBRfLOOjbHgrEFDjI-78" value="&lt;font color=&quot;#ffffff&quot;&gt;sources/&lt;/font&gt;" style="text;align=left;verticalAlign=middle;whiteSpace=wrap;rounded=0;fontFamily=Source Code Pro;fillColor=none;strokeColor=none;labelBorderColor=none;labelBackgroundColor=none;html=1;fontSource=https%3A%2F%2Fxbps-src-tutorials.github.io%2Ffonts%2Fsource-code-pro-v11-all-charsets-500.woff2;" parent="v_S-9-zrldfwNLv2zRYd-8" vertex="1">
          <mxGeometry x="20" y="170" width="70" height="20" as="geometry" />
        </mxCell>
        <mxCell id="fA-aBRfLOOjbHgrEFDjI-51" value="&lt;font color=&quot;#ffffff&quot;&gt;...&lt;/font&gt;" style="text;align=left;verticalAlign=middle;whiteSpace=wrap;rounded=0;fontFamily=Source Code Pro;fillColor=none;strokeColor=none;labelBorderColor=none;labelBackgroundColor=none;html=1;fontSource=https%3A%2F%2Fxbps-src-tutorials.github.io%2Ffonts%2Fsource-code-pro-v11-all-charsets-500.woff2;" parent="v_S-9-zrldfwNLv2zRYd-8" vertex="1">
          <mxGeometry x="40" y="150" width="30" height="20" as="geometry" />
        </mxCell>
        <mxCell id="fA-aBRfLOOjbHgrEFDjI-46" value="&lt;font color=&quot;#ffffff&quot;&gt;oniguruma-6.9.9_1.x86_64.xbps&lt;/font&gt;" style="text;align=left;verticalAlign=middle;whiteSpace=wrap;rounded=0;fontFamily=Source Code Pro;fillColor=none;strokeColor=none;labelBorderColor=none;labelBackgroundColor=none;html=1;fontSource=https%3A%2F%2Fxbps-src-tutorials.github.io%2Ffonts%2Fsource-code-pro-v11-all-charsets-500.woff2;" parent="v_S-9-zrldfwNLv2zRYd-8" vertex="1">
          <mxGeometry x="40" y="110" width="220" height="20" as="geometry" />
        </mxCell>
        <mxCell id="fA-aBRfLOOjbHgrEFDjI-47" value="&lt;font color=&quot;#ffffff&quot;&gt;bat-0.24.0_1.x86_64.xbps&lt;/font&gt;" style="text;align=left;verticalAlign=middle;whiteSpace=wrap;rounded=0;fontFamily=Source Code Pro;fillColor=none;strokeColor=none;labelBorderColor=none;labelBackgroundColor=none;html=1;fontSource=https%3A%2F%2Fxbps-src-tutorials.github.io%2Ffonts%2Fsource-code-pro-v11-all-charsets-500.woff2;" parent="v_S-9-zrldfwNLv2zRYd-8" vertex="1">
          <mxGeometry x="40" y="90" width="180" height="20" as="geometry" />
        </mxCell>
        <mxCell id="fA-aBRfLOOjbHgrEFDjI-45" value="&lt;font color=&quot;#ffffff&quot;&gt;j4-dmenu-desktop-2.18_3.x86_64.xbps&lt;/font&gt;" style="text;align=left;verticalAlign=middle;whiteSpace=wrap;rounded=0;fontFamily=Source Code Pro;fillColor=none;strokeColor=none;labelBorderColor=none;labelBackgroundColor=none;html=1;fontSource=https%3A%2F%2Fxbps-src-tutorials.github.io%2Ffonts%2Fsource-code-pro-v11-all-charsets-500.woff2;" parent="v_S-9-zrldfwNLv2zRYd-8" vertex="1">
          <mxGeometry x="40" y="70" width="260" height="20" as="geometry" />
        </mxCell>
        <mxCell id="fA-aBRfLOOjbHgrEFDjI-350" value="&lt;font color=&quot;#ffffff&quot;&gt;x86_64-repodata&lt;/font&gt;" style="text;align=left;verticalAlign=middle;whiteSpace=wrap;rounded=0;fontFamily=Source Code Pro;fillColor=none;strokeColor=none;labelBorderColor=none;labelBackgroundColor=none;html=1;fontSource=https%3A%2F%2Fxbps-src-tutorials.github.io%2Ffonts%2Fsource-code-pro-v11-all-charsets-500.woff2;" parent="v_S-9-zrldfwNLv2zRYd-8" vertex="1">
          <mxGeometry x="40" y="50" width="110" height="20" as="geometry" />
        </mxCell>
        <mxCell id="fA-aBRfLOOjbHgrEFDjI-351" value="&lt;font color=&quot;#ffffff&quot;&gt;...&lt;/font&gt;" style="text;align=left;verticalAlign=middle;whiteSpace=wrap;rounded=0;fontFamily=Source Code Pro;fillColor=none;strokeColor=none;labelBorderColor=none;labelBackgroundColor=none;html=1;fontSource=https%3A%2F%2Fxbps-src-tutorials.github.io%2Ffonts%2Fsource-code-pro-v11-all-charsets-500.woff2;" parent="v_S-9-zrldfwNLv2zRYd-8" vertex="1">
          <mxGeometry x="20" y="370" width="30" height="20" as="geometry" />
        </mxCell>
        <mxCell id="fA-aBRfLOOjbHgrEFDjI-40" value="&lt;font color=&quot;#ffffff&quot;&gt;hostdir/&lt;/font&gt;" style="text;align=left;verticalAlign=middle;whiteSpace=wrap;rounded=0;fontFamily=Source Code Pro;fillColor=none;strokeColor=none;labelBorderColor=none;labelBackgroundColor=none;html=1;fontSource=https%3A%2F%2Fxbps-src-tutorials.github.io%2Ffonts%2Fsource-code-pro-v11-all-charsets-500.woff2;" parent="v_S-9-zrldfwNLv2zRYd-8" vertex="1">
          <mxGeometry width="70" height="20" as="geometry" />
        </mxCell>
        <mxCell id="fA-aBRfLOOjbHgrEFDjI-44" value="&lt;font color=&quot;#ffffff&quot;&gt;binpkgs/&lt;/font&gt;" style="text;align=left;verticalAlign=middle;whiteSpace=wrap;rounded=0;fontFamily=Source Code Pro;fillColor=none;strokeColor=none;labelBorderColor=none;labelBackgroundColor=none;html=1;fontSource=https%3A%2F%2Fxbps-src-tutorials.github.io%2Ffonts%2Fsource-code-pro-v11-all-charsets-500.woff2;" parent="v_S-9-zrldfwNLv2zRYd-8" vertex="1">
          <mxGeometry x="20" y="30" width="70" height="20" as="geometry" />
        </mxCell>
        <mxCell id="v_S-9-zrldfwNLv2zRYd-3" value="&lt;font color=&quot;#ffffff&quot;&gt;rofimoji-6.2.0_1.x86_64.xbps&lt;/font&gt;" style="text;align=left;verticalAlign=middle;whiteSpace=wrap;rounded=0;fontFamily=Source Code Pro;fillColor=none;strokeColor=none;labelBorderColor=none;labelBackgroundColor=none;html=1;fontSource=https%3A%2F%2Fxbps-src-tutorials.github.io%2Ffonts%2Fsource-code-pro-v11-all-charsets-500.woff2;" parent="v_S-9-zrldfwNLv2zRYd-8" vertex="1">
          <mxGeometry x="40" y="130" width="220" height="20" as="geometry" />
        </mxCell>
        <mxCell id="v_S-9-zrldfwNLv2zRYd-5" value="&lt;font color=&quot;#ffffff&quot;&gt;rofimoji-6.2.0/&lt;/font&gt;" style="text;align=left;verticalAlign=middle;whiteSpace=wrap;rounded=0;fontFamily=Source Code Pro;fillColor=none;strokeColor=none;labelBorderColor=none;labelBackgroundColor=none;html=1;fontSource=https%3A%2F%2Fxbps-src-tutorials.github.io%2Ffonts%2Fsource-code-pro-v11-all-charsets-500.woff2;" parent="v_S-9-zrldfwNLv2zRYd-8" vertex="1">
          <mxGeometry x="40" y="310" width="110" height="20" as="geometry" />
        </mxCell>
        <mxCell id="v_S-9-zrldfwNLv2zRYd-6" value="&lt;font color=&quot;#ffffff&quot;&gt;6.2.0.tar.gz&lt;/font&gt;" style="text;align=left;verticalAlign=middle;whiteSpace=wrap;rounded=0;fontFamily=Source Code Pro;fillColor=none;strokeColor=none;labelBorderColor=none;labelBackgroundColor=none;html=1;fontSource=https%3A%2F%2Fxbps-src-tutorials.github.io%2Ffonts%2Fsource-code-pro-v11-all-charsets-500.woff2;" parent="v_S-9-zrldfwNLv2zRYd-8" vertex="1">
          <mxGeometry x="60" y="330" width="90" height="20" as="geometry" />
        </mxCell>
      </root>
    </mxGraphModel>
  </diagram>
</mxfile>
